<?xml version="1.0" standalone="no"?>
<!DOCTYPE svg PUBLIC "-//W3C//DTD SVG 20010904//EN"
 "http://www.w3.org/TR/2001/REC-SVG-20010904/DTD/svg10.dtd">
<svg version="1.0" xmlns="http://www.w3.org/2000/svg"
 width="600.000000pt" height="600.000000pt" viewBox="0 0 600.000000 600.000000"
 preserveAspectRatio="xMidYMid meet">
<metadata>
Created by potrace 1.16, written by Peter Selinger 2001-2019
</metadata>
<g transform="translate(0.000000,600.000000) scale(0.100000,-0.100000)"
fill="#5e268b" stroke="none">
<path d="M2485 4560 c-10 -17 3 -28 54 -45 26 -8 59 -27 72 -41 23 -25 24 -30
24 -197 0 -154 -2 -176 -20 -212 -27 -52 -104 -92 -193 -101 -73 -8 -88 -20
-35 -29 125 -21 146 -28 183 -61 43 -39 60 -90 60 -181 0 -226 139 -396 370
-454 90 -23 335 -18 443 9 92 23 155 50 177 77 16 19 31 313 17 333 -15 20
-34 -4 -42 -53 -9 -63 -69 -178 -112 -216 -21 -17 -62 -44 -93 -58 -51 -24
-65 -26 -190 -26 -120 0 -141 3 -185 23 -71 32 -131 95 -156 162 -13 35 -24
98 -30 175 -12 165 -29 197 -128 247 l-73 37 41 12 c51 15 119 72 137 116 10
23 14 82 14 206 0 156 2 176 18 190 16 15 47 17 233 17 239 0 327 -13 391 -55
51 -34 92 -100 114 -183 19 -74 31 -95 47 -85 10 6 2 339 -10 369 -3 9 -17 20
-30 25 -34 13 -1090 12 -1098 -1z"/>
<path d="M2860 3944 l0 -167 40 45 c62 71 114 88 348 114 56 7 44 24 -16 24
-62 0 -165 17 -227 37 -33 11 -64 32 -97 65 l-48 49 0 -167z"/>
<path d="M2918 2659 c-16 -9 -18 -30 -18 -218 l0 -208 -55 28 c-181 91 -427
11 -524 -171 -104 -196 -57 -459 102 -569 107 -73 282 -95 417 -52 81 26 101
26 150 1 22 -11 45 -20 52 -20 11 0 12 115 10 597 -3 670 3 623 -76 623 -23 0
-49 -5 -58 -11z m-150 -435 c54 -22 99 -71 117 -125 14 -40 16 -88 13 -272
l-3 -224 -27 -35 c-34 -45 -82 -62 -173 -62 -153 0 -242 100 -264 296 -19 166
25 335 101 389 68 49 166 63 236 33z"/>
<path d="M3560 2284 c-254 -68 -383 -376 -263 -624 72 -147 237 -232 423 -216
244 20 410 243 373 499 -25 179 -139 308 -304 346 -62 15 -164 12 -229 -5z
m208 -60 c115 -48 176 -181 175 -384 0 -120 -23 -197 -76 -256 -87 -100 -246
-111 -342 -23 -102 94 -142 319 -90 497 20 66 91 145 148 165 56 20 139 21
185 1z"/>
<path d="M5206 2289 c-63 -15 -155 -69 -197 -117 -120 -137 -144 -354 -58
-527 32 -64 116 -138 187 -166 89 -34 227 -38 341 -8 l90 23 53 -22 c69 -29
82 -28 73 1 -4 12 -10 198 -14 412 l-6 390 -53 3 c-62 4 -82 -8 -82 -49 0 -16
-3 -29 -6 -29 -4 0 -24 15 -45 34 -63 58 -178 80 -283 55z m168 -61 c62 -19
130 -91 150 -157 19 -64 22 -366 5 -441 -19 -85 -81 -124 -199 -124 -121 0
-205 65 -247 194 -25 76 -25 304 1 370 52 139 159 197 290 158z"/>
<path d="M4595 2264 c-38 -15 -95 -31 -126 -37 -52 -10 -60 -8 -107 16 -28 15
-52 23 -54 19 -2 -4 -1 -182 2 -397 l5 -390 70 0 70 0 5 310 c5 288 6 312 25
345 46 79 158 92 254 31 64 -41 76 -34 86 51 9 74 5 78 -90 78 -51 0 -89 -8
-140 -26z"/>
<path d="M387 2273 c-9 -8 12 -33 28 -33 7 0 24 -9 39 -21 25 -20 26 -24 26
-130 0 -108 -1 -111 -28 -139 -18 -17 -45 -31 -68 -35 -106 -17 -112 -28 -22
-44 91 -16 105 -34 117 -148 11 -102 26 -140 79 -196 88 -91 318 -120 508 -62
80 24 78 22 84 141 3 58 2 111 -1 116 -12 18 -27 -1 -45 -54 -21 -65 -92 -139
-150 -156 -58 -17 -177 -15 -221 3 -78 33 -102 74 -113 198 -10 102 -25 131
-84 161 l-37 18 41 20 c59 29 70 58 70 181 0 67 4 107 12 115 16 16 296 16
350 0 50 -15 101 -72 125 -138 12 -33 23 -50 32 -48 12 3 14 23 12 113 -1 60
-7 117 -12 127 -9 17 -35 18 -373 18 -199 0 -366 -3 -369 -7z"/>
<path d="M1350 2265 c-19 -22 -8 -511 13 -583 33 -114 101 -188 201 -217 73
-22 220 -19 298 5 80 25 97 25 153 -2 24 -12 46 -20 48 -17 1 2 0 189 -3 414
l-5 410 -63 3 c-44 2 -64 -1 -67 -10 -3 -7 -6 -155 -7 -328 -3 -296 -4 -317
-24 -354 -29 -57 -78 -79 -173 -80 -110 0 -164 35 -203 133 -21 52 -22 75 -26
341 -3 202 -7 287 -15 292 -22 14 -114 9 -127 -7z"/>
<path d="M650 1896 l0 -107 33 25 c36 28 117 51 215 61 100 11 82 24 -52 39
-80 10 -124 25 -161 57 l-35 31 0 -106z"/>
</g>
</svg>
